<?xml version="1.0" encoding="UTF-8" standalone="no"?>
<svg
   xmlns:dc="http://purl.org/dc/elements/1.1/"
   xmlns:cc="http://creativecommons.org/ns#"
   xmlns:rdf="http://www.w3.org/1999/02/22-rdf-syntax-ns#"
   xmlns:svg="http://www.w3.org/2000/svg"
   xmlns="http://www.w3.org/2000/svg"
   xmlns:sodipodi="http://sodipodi.sourceforge.net/DTD/sodipodi-0.dtd"
   xmlns:inkscape="http://www.inkscape.org/namespaces/inkscape"
   version="1.1"
   id="svg80"
   width="335.94577"
   height="324.46005"
   viewBox="0 0 335.94577 324.46005"
   sodipodi:docname="dros__geye.svg"
   inkscape:version="1.0 (4035a4fb49, 2020-05-01)">
  <metadata
     id="metadata86">
    <rdf:RDF>
      <cc:Work
         rdf:about="">
        <dc:format>image/svg+xml</dc:format>
        <dc:type
           rdf:resource="http://purl.org/dc/dcmitype/StillImage" />
        <dc:title></dc:title>
      </cc:Work>
    </rdf:RDF>
  </metadata>
  <defs
     id="defs84">
    <filter
       height="1.0121114"
       y="-0.0060557052"
       width="1.0051227"
       x="-0.0025613308"
       id="filter841"
       style="color-interpolation-filters:sRGB"
       inkscape:collect="always">
      <feGaussianBlur
         id="feGaussianBlur843"
         stdDeviation="0.090505692"
         inkscape:collect="always" />
    </filter>
  </defs>
  <sodipodi:namedview
     fit-margin-bottom="0"
     fit-margin-right="0"
     fit-margin-left="0"
     fit-margin-top="0"
     inkscape:document-rotation="0"
     pagecolor="#ffffff"
     bordercolor="#666666"
     borderopacity="1"
     objecttolerance="10"
     gridtolerance="10"
     guidetolerance="10"
     inkscape:pageopacity="0"
     inkscape:pageshadow="2"
     inkscape:window-width="2132"
     inkscape:window-height="1401"
     id="namedview82"
     showgrid="false"
     inkscape:pagecheckerboard="true"
     inkscape:zoom="0.9280303"
     inkscape:cx="-79.773047"
     inkscape:cy="135.92712"
     inkscape:window-x="2757"
     inkscape:window-y="0"
     inkscape:window-maximized="0"
     inkscape:current-layer="g92" />
  <g
     transform="translate(-23.634385,-33.441116)"
     inkscape:groupmode="layer"
     inkscape:label="Image"
     id="g88">
    <g
       id="g92"
       style="display:inline">
      <path
         style="display:inline;fill:#00ff00;stroke-width:0.8;filter:url(#filter841)"
         d="M 150.96931,84.98708 C 149.14688,82.973312 147.80487,76.222594 148.38755,72 c 1.38041,-10.003681 6.30509,-16.986372 13.77508,-19.53165 5.90106,-2.010697 6.63737,-1.792671 6.63737,1.965376 0,10.346884 -5.5119,24.220346 -11.607,29.214818 -3.84565,3.151232 -4.46306,3.284016 -6.22369,1.338536 z m 4.52509,-24.399606 c 1.21338,-1.65689 4.07352,-4.083512 6.35587,-5.392493 2.28236,-1.308982 3.60973,-2.381999 2.94973,-2.384483 -3.11211,-0.01171 -9.39082,5.267964 -11.69313,9.8326 -1.45059,2.875972 -0.83723,2.347884 2.38753,-2.055624 z m 67.71125,21.018022 C 218.65953,77.177434 215.11021,70.290789 213.20114,62.193998 211.69585,55.809714 211.62873,50.4 213.05481,50.4 c 2.78164,0 9.25131,2.607234 11.89435,4.793349 7.37612,6.100952 10.76145,23.380492 5.68054,28.994835 -1.92725,2.129592 -2.95221,1.773024 -7.42405,-2.582688 z M 228.38613,61.8 c -3.08248,-4.851238 -8.89699,-9.504088 -10.98761,-8.792455 -0.54919,0.186937 0.49777,1.106829 2.32657,2.044207 1.82879,0.937378 4.70879,3.3224 6.4,5.30005 3.5314,4.129525 4.26217,4.597586 2.26104,1.448198 z"
         id="path94" />
    </g>
  </g>
</svg>
